<svg width="1792.0000000000002" height="1792.0000000000002" xmlns="http://www.w3.org/2000/svg">

 <g>
  <title>background</title>
  <rect fill="none" id="canvas_background" height="402" width="582" y="-1" x="-1"/>
 </g>
 <g>
  <title>Layer 1</title>
  <path fill="#00bf00" id="svg_1" d="m891.94193,123.94193q209,0 385.5,103t279.5,279.5t103,385.5t-103,385.5t-279.5,279.5t-385.5,103t-385.5,-103t-279.5,-279.5t-103,-385.5t103,-385.5t279.5,-279.5t385.5,-103zm384,823q32,-18 32,-55t-32,-55l-544,-320q-31,-19 -64,-1q-32,19 -32,56l0,640q0,37 32,56q16,8 32,8q17,0 32,-9l544,-320z"/>
 </g>
</svg>